<mxfile host="app.diagrams.net" modified="2021-02-18T12:08:08.028Z" agent="5.0 (X11; Linux x86_64) AppleWebKit/537.36 (KHTML, like Gecko) Chrome/88.0.4324.150 Safari/537.36" etag="69CavUszmCXiu4_WrBo9" version="14.4.2" type="github">
  <diagram id="C5RBs43oDa-KdzZeNtuy" name="Page-1">
    <mxGraphModel dx="1567" dy="566" grid="1" gridSize="10" guides="1" tooltips="1" connect="1" arrows="1" fold="1" page="1" pageScale="1" pageWidth="827" pageHeight="1169" math="0" shadow="0">
      <root>
        <mxCell id="WIyWlLk6GJQsqaUBKTNV-0" />
        <mxCell id="WIyWlLk6GJQsqaUBKTNV-1" parent="WIyWlLk6GJQsqaUBKTNV-0" />
        <mxCell id="xR7EfEFJwK-dFY7lHJ4h-21" style="edgeStyle=orthogonalEdgeStyle;rounded=0;orthogonalLoop=1;jettySize=auto;html=1;exitX=0.5;exitY=1;exitDx=0;exitDy=0;entryX=0.5;entryY=0;entryDx=0;entryDy=0;" edge="1" parent="WIyWlLk6GJQsqaUBKTNV-1" source="WIyWlLk6GJQsqaUBKTNV-3" target="xR7EfEFJwK-dFY7lHJ4h-20">
          <mxGeometry relative="1" as="geometry" />
        </mxCell>
        <mxCell id="WIyWlLk6GJQsqaUBKTNV-3" value="stepRNA" style="rounded=1;whiteSpace=wrap;html=1;fontSize=12;glass=0;strokeWidth=1;shadow=0;" parent="WIyWlLk6GJQsqaUBKTNV-1" vertex="1">
          <mxGeometry x="180" y="10" width="80" height="30" as="geometry" />
        </mxCell>
        <mxCell id="WIyWlLk6GJQsqaUBKTNV-4" value="Yes" style="rounded=0;html=1;jettySize=auto;orthogonalLoop=1;fontSize=11;endArrow=block;endFill=0;endSize=8;strokeWidth=1;shadow=0;labelBackgroundColor=none;edgeStyle=orthogonalEdgeStyle;" parent="WIyWlLk6GJQsqaUBKTNV-1" target="WIyWlLk6GJQsqaUBKTNV-10" edge="1">
          <mxGeometry y="20" relative="1" as="geometry">
            <mxPoint as="offset" />
            <mxPoint x="220" y="250" as="sourcePoint" />
          </mxGeometry>
        </mxCell>
        <mxCell id="WIyWlLk6GJQsqaUBKTNV-5" value="No" style="edgeStyle=orthogonalEdgeStyle;rounded=0;html=1;jettySize=auto;orthogonalLoop=1;fontSize=11;endArrow=block;endFill=0;endSize=8;strokeWidth=1;shadow=0;labelBackgroundColor=none;" parent="WIyWlLk6GJQsqaUBKTNV-1" target="WIyWlLk6GJQsqaUBKTNV-7" edge="1">
          <mxGeometry y="10" relative="1" as="geometry">
            <mxPoint as="offset" />
            <mxPoint x="270" y="210" as="sourcePoint" />
          </mxGeometry>
        </mxCell>
        <mxCell id="WIyWlLk6GJQsqaUBKTNV-8" value="No" style="rounded=0;html=1;jettySize=auto;orthogonalLoop=1;fontSize=11;endArrow=block;endFill=0;endSize=8;strokeWidth=1;shadow=0;labelBackgroundColor=none;edgeStyle=orthogonalEdgeStyle;" parent="WIyWlLk6GJQsqaUBKTNV-1" target="WIyWlLk6GJQsqaUBKTNV-11" edge="1">
          <mxGeometry x="0.3333" y="20" relative="1" as="geometry">
            <mxPoint as="offset" />
            <mxPoint x="220" y="370" as="sourcePoint" />
          </mxGeometry>
        </mxCell>
        <mxCell id="WIyWlLk6GJQsqaUBKTNV-9" value="Yes" style="edgeStyle=orthogonalEdgeStyle;rounded=0;html=1;jettySize=auto;orthogonalLoop=1;fontSize=11;endArrow=block;endFill=0;endSize=8;strokeWidth=1;shadow=0;labelBackgroundColor=none;" parent="WIyWlLk6GJQsqaUBKTNV-1" target="WIyWlLk6GJQsqaUBKTNV-12" edge="1">
          <mxGeometry y="10" relative="1" as="geometry">
            <mxPoint as="offset" />
            <mxPoint x="270" y="330" as="sourcePoint" />
          </mxGeometry>
        </mxCell>
        <mxCell id="xR7EfEFJwK-dFY7lHJ4h-9" style="edgeStyle=orthogonalEdgeStyle;rounded=0;orthogonalLoop=1;jettySize=auto;html=1;exitX=0.5;exitY=1;exitDx=0;exitDy=0;" edge="1" parent="WIyWlLk6GJQsqaUBKTNV-1" source="xR7EfEFJwK-dFY7lHJ4h-6" target="xR7EfEFJwK-dFY7lHJ4h-8">
          <mxGeometry relative="1" as="geometry" />
        </mxCell>
        <mxCell id="xR7EfEFJwK-dFY7lHJ4h-24" style="edgeStyle=orthogonalEdgeStyle;rounded=0;orthogonalLoop=1;jettySize=auto;html=1;exitX=0;exitY=0.5;exitDx=0;exitDy=0;entryX=1;entryY=0.5;entryDx=0;entryDy=0;" edge="1" parent="WIyWlLk6GJQsqaUBKTNV-1" source="xR7EfEFJwK-dFY7lHJ4h-6" target="xR7EfEFJwK-dFY7lHJ4h-23">
          <mxGeometry relative="1" as="geometry" />
        </mxCell>
        <mxCell id="xR7EfEFJwK-dFY7lHJ4h-6" value="Bowtie2 Index" style="rounded=0;whiteSpace=wrap;html=1;" vertex="1" parent="WIyWlLk6GJQsqaUBKTNV-1">
          <mxGeometry x="180" y="150" width="80" height="30" as="geometry" />
        </mxCell>
        <mxCell id="xR7EfEFJwK-dFY7lHJ4h-16" style="edgeStyle=orthogonalEdgeStyle;rounded=0;orthogonalLoop=1;jettySize=auto;html=1;exitX=0.5;exitY=1;exitDx=0;exitDy=0;entryX=0.5;entryY=0;entryDx=0;entryDy=0;" edge="1" parent="WIyWlLk6GJQsqaUBKTNV-1" source="xR7EfEFJwK-dFY7lHJ4h-8" target="xR7EfEFJwK-dFY7lHJ4h-10">
          <mxGeometry relative="1" as="geometry" />
        </mxCell>
        <mxCell id="xR7EfEFJwK-dFY7lHJ4h-8" value="Index" style="rounded=0;whiteSpace=wrap;html=1;" vertex="1" parent="WIyWlLk6GJQsqaUBKTNV-1">
          <mxGeometry x="180" y="210" width="80" height="30" as="geometry" />
        </mxCell>
        <mxCell id="xR7EfEFJwK-dFY7lHJ4h-17" style="edgeStyle=orthogonalEdgeStyle;rounded=0;orthogonalLoop=1;jettySize=auto;html=1;exitX=0.5;exitY=1;exitDx=0;exitDy=0;entryX=0.5;entryY=0;entryDx=0;entryDy=0;" edge="1" parent="WIyWlLk6GJQsqaUBKTNV-1" source="xR7EfEFJwK-dFY7lHJ4h-10" target="xR7EfEFJwK-dFY7lHJ4h-11">
          <mxGeometry relative="1" as="geometry" />
        </mxCell>
        <mxCell id="xR7EfEFJwK-dFY7lHJ4h-10" value="Align" style="rounded=0;whiteSpace=wrap;html=1;" vertex="1" parent="WIyWlLk6GJQsqaUBKTNV-1">
          <mxGeometry x="180" y="260" width="80" height="30" as="geometry" />
        </mxCell>
        <mxCell id="xR7EfEFJwK-dFY7lHJ4h-18" style="edgeStyle=orthogonalEdgeStyle;rounded=0;orthogonalLoop=1;jettySize=auto;html=1;exitX=0.5;exitY=1;exitDx=0;exitDy=0;entryX=0.5;entryY=0;entryDx=0;entryDy=0;" edge="1" parent="WIyWlLk6GJQsqaUBKTNV-1" source="xR7EfEFJwK-dFY7lHJ4h-11" target="xR7EfEFJwK-dFY7lHJ4h-12">
          <mxGeometry relative="1" as="geometry" />
        </mxCell>
        <mxCell id="xR7EfEFJwK-dFY7lHJ4h-11" value="Sort" style="rounded=0;whiteSpace=wrap;html=1;" vertex="1" parent="WIyWlLk6GJQsqaUBKTNV-1">
          <mxGeometry x="180" y="310" width="80" height="30" as="geometry" />
        </mxCell>
        <mxCell id="xR7EfEFJwK-dFY7lHJ4h-19" style="edgeStyle=orthogonalEdgeStyle;rounded=0;orthogonalLoop=1;jettySize=auto;html=1;exitX=0;exitY=0.5;exitDx=0;exitDy=0;entryX=1;entryY=0.5;entryDx=0;entryDy=0;" edge="1" parent="WIyWlLk6GJQsqaUBKTNV-1" source="xR7EfEFJwK-dFY7lHJ4h-12" target="xR7EfEFJwK-dFY7lHJ4h-13">
          <mxGeometry relative="1" as="geometry" />
        </mxCell>
        <mxCell id="xR7EfEFJwK-dFY7lHJ4h-26" style="edgeStyle=orthogonalEdgeStyle;rounded=0;orthogonalLoop=1;jettySize=auto;html=1;exitX=0.5;exitY=1;exitDx=0;exitDy=0;entryX=0.5;entryY=0;entryDx=0;entryDy=0;" edge="1" parent="WIyWlLk6GJQsqaUBKTNV-1" source="xR7EfEFJwK-dFY7lHJ4h-12" target="xR7EfEFJwK-dFY7lHJ4h-25">
          <mxGeometry relative="1" as="geometry" />
        </mxCell>
        <mxCell id="xR7EfEFJwK-dFY7lHJ4h-12" value="Index" style="rounded=0;whiteSpace=wrap;html=1;" vertex="1" parent="WIyWlLk6GJQsqaUBKTNV-1">
          <mxGeometry x="180" y="400" width="80" height="30" as="geometry" />
        </mxCell>
        <mxCell id="xR7EfEFJwK-dFY7lHJ4h-13" value="Sorted BAM" style="shape=parallelogram;perimeter=parallelogramPerimeter;whiteSpace=wrap;html=1;fixedSize=1;" vertex="1" parent="WIyWlLk6GJQsqaUBKTNV-1">
          <mxGeometry x="20" y="385" width="120" height="60" as="geometry" />
        </mxCell>
        <mxCell id="xR7EfEFJwK-dFY7lHJ4h-15" style="edgeStyle=orthogonalEdgeStyle;rounded=0;orthogonalLoop=1;jettySize=auto;html=1;entryX=1;entryY=0.5;entryDx=0;entryDy=0;" edge="1" parent="WIyWlLk6GJQsqaUBKTNV-1" source="xR7EfEFJwK-dFY7lHJ4h-14" target="xR7EfEFJwK-dFY7lHJ4h-10">
          <mxGeometry relative="1" as="geometry" />
        </mxCell>
        <mxCell id="xR7EfEFJwK-dFY7lHJ4h-14" value="Read Sequences&amp;nbsp;&lt;br&gt;(.fasta)" style="shape=parallelogram;perimeter=parallelogramPerimeter;whiteSpace=wrap;html=1;fixedSize=1;" vertex="1" parent="WIyWlLk6GJQsqaUBKTNV-1">
          <mxGeometry x="340" y="245" width="120" height="60" as="geometry" />
        </mxCell>
        <mxCell id="xR7EfEFJwK-dFY7lHJ4h-22" style="edgeStyle=orthogonalEdgeStyle;rounded=0;orthogonalLoop=1;jettySize=auto;html=1;exitX=0.5;exitY=1;exitDx=0;exitDy=0;entryX=0.5;entryY=0;entryDx=0;entryDy=0;" edge="1" parent="WIyWlLk6GJQsqaUBKTNV-1" source="xR7EfEFJwK-dFY7lHJ4h-20" target="xR7EfEFJwK-dFY7lHJ4h-6">
          <mxGeometry relative="1" as="geometry" />
        </mxCell>
        <mxCell id="xR7EfEFJwK-dFY7lHJ4h-20" value="Reference Sequences&lt;br&gt;(.fasta)" style="shape=parallelogram;perimeter=parallelogramPerimeter;whiteSpace=wrap;html=1;fixedSize=1;" vertex="1" parent="WIyWlLk6GJQsqaUBKTNV-1">
          <mxGeometry x="160" y="60" width="120" height="60" as="geometry" />
        </mxCell>
        <mxCell id="xR7EfEFJwK-dFY7lHJ4h-23" value="Indexed Reference" style="shape=parallelogram;perimeter=parallelogramPerimeter;whiteSpace=wrap;html=1;fixedSize=1;" vertex="1" parent="WIyWlLk6GJQsqaUBKTNV-1">
          <mxGeometry x="20" y="135" width="120" height="60" as="geometry" />
        </mxCell>
        <mxCell id="xR7EfEFJwK-dFY7lHJ4h-28" style="edgeStyle=orthogonalEdgeStyle;rounded=0;orthogonalLoop=1;jettySize=auto;html=1;exitX=0.5;exitY=1;exitDx=0;exitDy=0;entryX=0.5;entryY=0;entryDx=0;entryDy=0;" edge="1" parent="WIyWlLk6GJQsqaUBKTNV-1" source="xR7EfEFJwK-dFY7lHJ4h-25" target="xR7EfEFJwK-dFY7lHJ4h-27">
          <mxGeometry relative="1" as="geometry" />
        </mxCell>
        <mxCell id="xR7EfEFJwK-dFY7lHJ4h-25" value="If (flag != 4) &amp;amp; (D or I not in CIGARSTRING)" style="rhombus;whiteSpace=wrap;html=1;" vertex="1" parent="WIyWlLk6GJQsqaUBKTNV-1">
          <mxGeometry x="125" y="480" width="190" height="110" as="geometry" />
        </mxCell>
        <mxCell id="xR7EfEFJwK-dFY7lHJ4h-29" style="edgeStyle=orthogonalEdgeStyle;rounded=0;orthogonalLoop=1;jettySize=auto;html=1;exitX=0;exitY=0.5;exitDx=0;exitDy=0;entryX=0;entryY=0.5;entryDx=0;entryDy=0;" edge="1" parent="WIyWlLk6GJQsqaUBKTNV-1" source="xR7EfEFJwK-dFY7lHJ4h-27" target="xR7EfEFJwK-dFY7lHJ4h-25">
          <mxGeometry relative="1" as="geometry" />
        </mxCell>
        <mxCell id="xR7EfEFJwK-dFY7lHJ4h-27" value="Classify Left and Right overhangs" style="rounded=0;whiteSpace=wrap;html=1;" vertex="1" parent="WIyWlLk6GJQsqaUBKTNV-1">
          <mxGeometry x="160" y="630" width="120" height="60" as="geometry" />
        </mxCell>
        <mxCell id="xR7EfEFJwK-dFY7lHJ4h-30" value="True" style="text;html=1;strokeColor=none;fillColor=none;align=center;verticalAlign=middle;whiteSpace=wrap;rounded=0;" vertex="1" parent="WIyWlLk6GJQsqaUBKTNV-1">
          <mxGeometry x="220" y="600" width="40" height="20" as="geometry" />
        </mxCell>
        <mxCell id="xR7EfEFJwK-dFY7lHJ4h-32" value="" style="rounded=0;whiteSpace=wrap;html=1;dashed=1;strokeWidth=4;fillColor=none;shadow=0;" vertex="1" parent="WIyWlLk6GJQsqaUBKTNV-1">
          <mxGeometry x="10" y="120" width="470" height="340" as="geometry" />
        </mxCell>
        <mxCell id="xR7EfEFJwK-dFY7lHJ4h-33" value="&lt;b&gt;&lt;font style=&quot;font-size: 15px&quot;&gt;Bowtie2 Alignment&lt;/font&gt;&lt;/b&gt;" style="text;html=1;strokeColor=none;fillColor=none;align=right;verticalAlign=middle;whiteSpace=wrap;rounded=0;shadow=0;dashed=1;" vertex="1" parent="WIyWlLk6GJQsqaUBKTNV-1">
          <mxGeometry x="323" y="120" width="154" height="25" as="geometry" />
        </mxCell>
      </root>
    </mxGraphModel>
  </diagram>
</mxfile>
